<svg xmlns="http://www.w3.org/2000/svg" viewBox="0 0 120 120" fill="none">
  <defs>
    <linearGradient id="defGrad" x1="20" y1="20" x2="100" y2="100" gradientUnits="userSpaceOnUse">
      <stop offset="0%" stop-color="#1E40AF"/>
      <stop offset="100%" stop-color="#1E3A8A"/>
    </linearGradient>
    <linearGradient id="defGlow" x1="30" y1="30" x2="90" y2="90" gradientUnits="userSpaceOnUse">
      <stop offset="0%" stop-color="#60A5FA" stop-opacity="0.7"/>
      <stop offset="100%" stop-color="#3B82F6" stop-opacity="0.2"/>
    </linearGradient>
  </defs>
  <!-- Background Glow Badge -->
  <rect x="22" y="22" width="76" height="76" rx="20" fill="url(#defGlow)"/>
  <!-- Layered Research Shield / Documents -->
  <path d="M42 34h36a6 6 0 0 1 6 6v42a6 6 0 0 1-6 6H42a6 6 0 0 1-6-6V40a6 6 0 0 1 6-6z" fill="url(#defGrad)" stroke="#BFDBFE" stroke-width="2"/>
  <!-- Underlayer Document -->
  <path d="M48 26h30a6 6 0 0 1 6 6v36" stroke="#60A5FA" stroke-width="2" stroke-linecap="round"/>
  <!-- Research Factor Monogram Inlay -->
  <path d="M48 48h14a6 6 0 0 1 0 12H48v16" stroke="#FFFFFF" stroke-width="3" stroke-linecap="round" stroke-linejoin="round"/>
  <path d="M58 60l8 16" stroke="#FFFFFF" stroke-width="3" stroke-linecap="round"/>
</svg>
